# xmcd CD database file
#
# Track frame offsets:
#	150
#	148436
#	186813
#
# Disc length: 3199 seconds
#
# Revision: 0
# Processed by: cddbd v1.5.1PL2 Copyright (c) Steve Scherf et al.
# Submitted via: CDex 1.51
#
DISCID=2b0c7d03
DTITLE=Derek Bailey - Mick Beck - Paul Hession - Meanwhile, Back in Sheffield
DYEAR=2004
DGENRE=Jazz
TTITLE0=After the Red Deer
TTITLE1=Raining
TTITLE2=Buckets
EXTD=YEAR: 2004
EXTT0=
EXTT1=
EXTT2=
PLAYORDER=
